<svg width="27" height="25" viewBox="0 0 27 25" fill="none" xmlns="http://www.w3.org/2000/svg">
<path d="M5.76 24.512C5.696 24.704 5.568 24.832 5.376 24.896C5.184 24.96 4.87467 24.992 4.448 24.992H2.624H1.344C1.10933 24.992 0.992 24.8213 0.992 24.48V24.32L0.704 24.352C0.469333 24.352 0.352 24.192 0.352 23.872C0.352 23.424 0.565333 22.6987 0.992 21.696V21.728L1.248 21.024H1.216C1.64267 19.7227 1.99467 18.7733 2.272 18.176L2.24 18.208C2.304 17.8667 3.31733 15.0933 5.28 9.888C5.38667 9.61067 5.65333 8.82133 6.08 7.52H6.048C6.13333 7.15733 6.22933 6.85867 6.336 6.624C6.69867 5.89867 7.28533 4 8.096 0.927999C8.45867 1.01333 8.896 1.056 9.408 1.056L10.88 1.024C11.712 1.024 12.416 1.16267 12.992 1.44L12.928 1.568L12.832 1.792C13.1093 1.87733 13.376 1.97333 13.632 2.08L13.504 2.336C13.4187 2.48533 13.376 2.60267 13.376 2.688C13.376 2.88 13.1947 3.552 12.832 4.704C12.4693 5.83467 12.2347 6.54933 12.128 6.848L11.904 7.52L11.424 8.864C10.7413 10.8053 10.2613 12.2133 9.984 13.088C9.87733 13.4293 9.65333 14.1227 9.312 15.168C8.97067 16.192 8.62933 17.1413 8.288 18.016V17.984C7.92533 19.008 7.69067 19.6587 7.584 19.936L5.76 24.544V24.512ZM6.656 19.168C7.63733 16.672 8.78933 13.408 10.112 9.376C11.4347 5.32267 12.192 2.912 12.384 2.144C12.4267 2.03733 12.4587 1.94133 12.48 1.856C12.5013 1.77067 12.5333 1.67467 12.576 1.568C12.4053 1.46133 12.2133 1.39733 12 1.376C11.7867 1.35467 11.4987 1.344 11.136 1.344C10.7307 1.344 10.4213 1.35467 10.208 1.376L9.28 1.408C8.91733 1.408 8.608 1.376 8.352 1.312C8.096 2.35733 7.78667 3.41333 7.424 4.48C7.06133 5.54667 6.848 6.144 6.784 6.272C5.52533 10.0907 4.58667 12.8107 3.968 14.432C3.37067 16.0533 3.02933 16.992 2.944 17.248C2.70933 17.76 2.58133 18.112 2.56 18.304C2.24 19.0293 1.89867 19.968 1.536 21.12C1.51467 21.184 1.35467 21.5893 1.056 22.336C0.757333 23.0613 0.608 23.584 0.608 23.904C0.608 23.9893 0.64 24.032 0.704 24.032H0.736C1.22667 24.0107 1.81333 24 2.496 24H3.616H4C4.256 24 4.448 23.9893 4.576 23.968C4.72533 23.9253 4.81067 23.8613 4.832 23.776L6.656 19.168ZM14.3075 20.992C15.2035 20.2453 16.3128 19.2107 17.6355 17.888C18.7875 16.7787 19.6622 15.9573 20.2595 15.424C20.0248 15.1467 19.3315 14.4107 18.1795 13.216C18.0515 13.088 17.5822 12.608 16.7715 11.776C15.9822 10.9227 15.2675 10.08 14.6275 9.248C14.9902 9.03467 15.4488 8.62933 16.0035 8.032C16.0462 7.98933 16.2168 7.81867 16.5155 7.52C16.8355 7.2 17.1768 6.93333 17.5395 6.72L18.1795 7.36L20.0355 9.248L20.1955 9.408C20.6435 9.89867 21.0488 10.3253 21.4115 10.688C21.7742 11.0293 22.0088 11.2533 22.1155 11.36L22.2115 11.456C22.5102 11.8187 22.8622 12.224 23.2675 12.672C23.6942 13.0987 24.0248 13.44 24.2595 13.696C25.2622 14.6987 25.9768 15.4667 26.4035 16C25.6355 17.0027 24.8462 17.9093 24.0355 18.72C23.2248 19.5307 22.2008 20.4907 20.9635 21.6C19.5982 22.8373 18.5848 23.7973 17.9235 24.48C16.6008 23.328 15.8862 22.688 15.7795 22.56C15.6942 22.4107 15.5982 22.2827 15.4915 22.176L14.9155 21.568L14.3075 20.992ZM15.6515 21.856C16.2275 22.432 16.7715 22.944 17.2835 23.392L17.3155 23.36C17.9342 22.72 18.9262 21.7813 20.2915 20.544C21.5715 19.3707 22.5635 18.4427 23.2675 17.76C23.9715 17.056 24.6648 16.256 25.3475 15.36C24.7288 14.5707 23.7688 13.5253 22.4675 12.224L20.8675 10.592C20.0355 9.76 18.9155 8.59733 17.5075 7.104C17.2088 7.27467 16.7715 7.66933 16.1955 8.288C15.6195 8.864 15.2462 9.20533 15.0755 9.312C15.3955 9.73867 15.8648 10.2827 16.4835 10.944C17.1235 11.584 17.5608 12.032 17.7955 12.288C19.3742 13.9733 20.3448 15.0293 20.7075 15.456C20.0888 15.9893 19.2035 16.832 18.0515 17.984C16.7502 19.2853 15.6622 20.2987 14.7875 21.024L15.1395 21.344L15.6515 21.856Z" fill="white"/>
</svg>
